<?xml version="1.0" encoding="utf-8"?>
<!-- Generator: Adobe Illustrator 19.0.0, SVG Export Plug-In . SVG Version: 6.00 Build 0)  -->
<svg version="1.1" id="Layer_1" xmlns="http://www.w3.org/2000/svg" xmlns:xlink="http://www.w3.org/1999/xlink" x="0px" y="0px"
	 viewBox="-279 81 400 400" style="enable-background:new -279 81 400 400;" xml:space="preserve">
<style type="text/css">
	.st0{fill:none;}
	.st1{fill:#FF7C0A;}
</style>
<rect x="-279" y="81" class="st0" width="400" height="400"/>
<path class="st1" d="M108.5,156H45.7c-53.9,0-82.9,3.1-105.5,30.6c-52.2-45.2-131.1-39.6-176.3,12.6s-39.6,131.1,12.6,176.3
	s131.1,39.6,176.3-12.6c8.4-9.7,15.2-20.6,20.3-32.3c49.8-3.6,84.3-33.4,95.1-80.9c0,0-37.5,9.1-69.3,0
	C61.8,237.6,98,202.3,108.5,156z M-179,281c-0.1-20.6,16.6-37.4,37.3-37.5c7.1,0,14.1,2,20.1,5.8c3.4-23.1,23.5-40,46.9-39.5h0.1
	c-14.4,27.8-22,52.4-31.2,82.3c-6.1,19.7-27,30.8-46.7,24.8C-168.3,312-179,297.5-179,281z"/>
</svg>
